Coordinates
version=1
nRows=14
nColumns=33
inDegrees=yes

Units are S.I. units (second, meters, Newtons, ...)
Angles are in degrees.

endheader
time	ground_thorax_rot_x	ground_thorax_rot_y	ground_thorax_rot_z	ground_thorax_tx	ground_thorax_ty	ground_thorax_tz	clav_prot_r	clav_elev_r	scapula_abduction_r	scapula_elevation_r	scapula_upward_rot_r	scapula_winging_r	shoulder_elv_r	plane_of_elev_r	axial_rot_r	elbow_flexion_r	pro_sup_r	wrist_flex_r	wrist_dev_r	clav_prot_l	clav_elev_l	scapula_abduction_l	scapula_elevation_l	scapula_upward_rot_l	scapula_winging_l	shoulder_elv_l	plane_of_elev_l	axial_rot_l	elbow_flexion_l	pro_sup_l	wrist_flex_l	wrist_dev_l
      5.01000000	    -38.83865380	     -6.77902364	     10.62201974	   -211.04983227	    843.67422430	      7.32705588	      7.18134077	    -45.00000000	     43.06433272	    -45.00000000	    -22.79919919	  -3341.48743732	  -1367.85210259	     32.65692529	     64.30458612	   2172.43857978	     14.49539891	     19.63231883	      6.93417767	     -4.18249248	     40.99001466	    -45.00000000	    -45.00000000	     45.00000000	   3000.98090136	  -6392.61016235	     11.20364131	    179.99999979	     13.47508148	   -152.22815848	     10.49808710	    -14.75393653
      5.02000000	    -38.91401996	     -6.51945616	     10.40123222	   -212.97414792	    844.67631417	      7.41958035	      7.01514017	    -45.00000000	     42.76785713	    -45.00000000	    -23.16125863	  -3341.43749686	  -1367.86933230	     32.71778127	     64.32851898	   2172.23678013	     14.49431998	     19.58102533	      6.72986477	     -4.14122216	     41.00352376	    -45.00000000	    -45.00000000	     45.00000000	   3000.91746421	  -6392.43079276	     11.15855671	    179.99999979	     13.44444035	   -152.47010846	     10.51355853	    -14.89289657
      5.03000000	    -38.93417702	     -6.36216377	     10.32465028	   -214.85778689	    845.62191032	      7.50756176	      7.07608073	    -45.00000000	     42.54754355	    -45.00000000	    -23.64357668	  -3341.57487134	  -1367.78300673	     32.84943541	     64.48269040	   2172.25972601	     14.56229821	     19.57396537	      6.59915064	     -4.09199264	     40.95687629	    -45.00000000	    -45.00000000	     45.00000000	   3000.88890599	  -6392.23413335	     11.12619722	    179.99999979	     13.54268168	   -152.69430522	     10.44674848	    -14.90927288
      5.04000000	    -38.93551574	     -6.29471770	     10.34977570	   -216.69825273	    846.50769020	      7.59129246	      7.08476807	    -45.00000000	     42.42636668	    -45.00000000	    -24.13036579	  -3341.68380781	  -1367.64247186	     32.83997826	     64.53454591	   2172.30395765	     14.67969409	     19.57284713	      6.41409626	     -4.04540209	     40.96164862	    -45.00000000	    -45.00000000	     45.00000000	   3000.85987154	  -6391.95696396	     11.10036127	    179.99999979	     13.68478631	   -152.92931058	     10.40307801	    -14.93860219
      5.05000000	    -38.95740970	     -6.14264620	     10.29282977	   -218.49546159	    847.33231242	      7.67106433	      7.07734229	    -45.00000000	     42.22110600	    -45.00000000	    -24.62406841	  -3341.75177667	  -1367.56553861	     32.90817210	     64.58864917	   2172.25327294	     14.87098539	     19.54380210	      6.24598182	     -3.99665429	     40.95559261	    -45.00000000	    -45.00000000	     45.00000000	   3000.82729559	  -6391.74677536	     11.07762585	    179.99999979	     13.74822693	   -153.17253409	     10.34939065	    -14.99113443
      5.06000000	    -38.97436702	     -6.06723867	     10.29620440	   -220.24940327	    848.09647900	      7.74734145	      7.09707167	    -45.00000000	     42.06617706	    -45.00000000	    -25.13113468	  -3341.87109072	  -1367.44400440	     32.94394075	     64.64379324	   2172.29999175	     15.13033942	     19.53435042	      6.07336452	     -3.94604697	     40.94169419	    -45.00000000	    -45.00000000	     45.00000000	   3000.80386985	  -6391.51067994	     11.03586125	    179.99999979	     13.87354345	   -153.41657444	     10.28815751	    -15.01760779
      5.07000000	    -38.98664127	     -5.97106289	     10.27237155	   -221.95735161	    848.80205087	      7.81983159	      7.11056569	    -45.00000000	     41.90290032	    -45.00000000	    -25.62797802	  -3341.95749359	  -1367.35278323	     32.98188433	     64.67359603	   2172.30436176	     15.47086481	     19.50553679	      5.88454610	     -3.89749893	     40.94168843	    -45.00000000	    -45.00000000	     45.00000000	   3000.78790546	  -6391.29254670	     10.99564459	    179.99999979	     13.98518632	   -153.67122525	     10.22911310	    -15.05258351
      5.08000000	    -38.98554969	     -5.98159702	     10.32386793	   -223.61765697	    849.45392517	      7.88809044	      7.14754672	    -45.00000000	     41.80165751	    -45.00000000	    -26.13590430	  -3342.04060297	  -1367.28428649	     32.98546312	     64.69396428	   2172.32722807	     15.92020102	     19.47432141	      5.70492257	     -3.84271964	     40.93387625	    -45.00000000	    -45.00000000	     44.92220223	   3000.77547174	  -6390.99090555	     10.98427443	    179.99999979	     14.11141822	   -153.94511145	     10.15643294	    -15.06412357
      5.09000000	    -39.00110208	     -5.99203789	     10.39867878	   -225.22699140	    850.05789114	      7.95158067	      7.19024277	    -45.00000000	     41.67338230	    -45.00000000	    -26.67964714	  -3342.13189637	  -1367.22004451	     32.98736973	     64.73092471	   2172.37030730	     16.48441046	     19.44003308	      5.50492463	     -3.76330706	     40.98397956	    -45.00000000	    -45.00000000	     44.48340888	   3000.70045453	  -6390.87982185	     10.97808786	    179.99999979	     14.17195516	   -154.23726354	     10.11358101	    -15.12012378
      5.10000000	    -38.99356058	     -6.06494005	     10.54991241	   -226.78034420	    850.61942464	      8.01024904	      7.27453600	    -45.00000000	     41.56780182	    -45.00000000	    -27.29493716	  -3342.25499255	  -1367.10922566	     32.99805926	     64.76824925	   2172.44534939	     17.19023629	     19.40473894	      5.30034053	     -3.64233322	     41.07165547	    -45.00000000	    -45.00000000	     43.85624198	   3000.59541966	  -6390.84262173	     10.96850033	    179.99999979	     14.21365709	   -154.53913836	     10.08191983	    -15.18449174
      5.11000000	    -39.02119267	     -6.06122369	     10.61971673	   -228.27328033	    851.14332904	      8.06453130	      7.27250777	    -45.00000000	     41.38820212	    -45.00000000	    -27.86254215	  -3342.30304883	  -1367.07814973	     33.01212468	     64.80442529	   2172.45936046	     17.96655175	     19.34935159	      5.08597065	     -3.52544713	     41.18116788	    -45.00000000	    -45.00000000	     43.20310674	   3000.48456706	  -6390.86481108	     10.96286839	    179.99999979	     14.19385299	   -154.82289713	     10.06809803	    -15.29849095
      5.12000000	    -39.03188685	     -6.09619872	     10.72458701	   -229.70147600	    851.63212708	      8.11500795	      7.34013961	    -45.00000000	     41.24621977	    -45.00000000	    -28.44051249	  -3342.39363384	  -1367.02240491	     33.04916527	     64.85186962	   2172.51937214	     18.83964671	     19.29805177	      4.88659811	     -3.39761000	     41.27633714	    -45.00000000	    -45.00000000	     42.52838075	   3000.37624638	  -6390.88580216	     10.95559227	    179.99999979	     14.18405133	   -155.09194485	     10.04143270	    -15.38431330
      5.13000000	    -39.05700099	     -6.11834466	     10.80427893	   -231.06124524	    852.08618671	      8.16226916	      7.36193920	    -45.00000000	     41.09052419	    -45.00000000	    -28.97314018	  -3342.44653011	  -1366.98841355	     33.07457765	     64.88644911	   2172.54869074	     19.77209005	     19.23646887	      4.69055177	     -3.27790956	     41.37778466	    -45.00000000	    -45.00000000	     41.87749720	   3000.27016752	  -6390.91644293	     10.95550273	    179.99999979	     14.16172157	   -155.34272138	     10.02291315	    -15.48654706
      5.14000000	    -39.08327294	     -6.02401307	     10.78487046	   -232.35173393	    852.50443467	      8.20660180	      7.36308985	    -45.00000000	     40.86486652	    -45.00000000	    -29.45191445	  -3342.44810335	  -1367.00763638	     33.16906635	     64.95700759	   2172.47844921	     20.69210450	     19.15549962	      4.52373394	     -3.17281239	     41.46879871	    -45.00000000	    -45.00000000	     41.29294016	   3000.16227458	  -6390.99030058	     10.96445930	    179.99999979	     14.11074352	   -155.56246547	     10.00451617	    -15.60326274
